<?xml version="1.0" encoding="UTF-8"?>
<svg width="2048px" height="2048px" viewBox="0 0 2048 2048" version="1.1" xmlns="http://www.w3.org/2000/svg" xmlns:xlink="http://www.w3.org/1999/xlink">
    <title>logo</title>
    <g id="Satoshi's-Vision-Logo" stroke="none" stroke-width="1" fill="none" fill-rule="evenodd">
        <g id="logo">
            <rect id="Rectangle" fill="#FFFFFF" x="0" y="0" width="2048" height="2048" rx="256"></rect>
            <path d="M1604,736 L1604,668 L1818,668 L1818,814 L1899,814 L1899,950 L1818,950 L1818,1044 L1899,1044 L1899,1180 L1758.7211,1180.00649 C1691.15308,1299.51983 1556.53783,1381 1401.5,1381 C1228.92263,1381 1081.65008,1280.04119 1023.98868,1138.04721 L1024.01132,1138.04721 C966.349924,1280.04119 819.077367,1381 646.5,1381 C491.462169,1381 356.846925,1299.51983 289.278903,1180.00649 L149,1180 L149,1044 L230,1044 L230,950 L149,950 L149,814 L230,814 L230,668 L444,668 L443.997411,679.708794 C444.993589,679.169134 445.992471,678.633333 446.994036,678.101414 L447,736 L1604,736 Z M835.533539,936.999349 L460.466461,936.999349 C460.157223,941.088722 460,945.216986 460,949.37931 C460,1045.68634 500.285714,1164 648,1164 C795.714286,1164 836,1045.68634 836,949.37931 C836,945.216986 835.842777,941.088722 835.533539,936.999349 Z M1587.53354,936.999349 L1212.46646,936.999349 C1212.15722,941.088722 1212,945.216986 1212,949.37931 C1212,1045.68634 1252.28571,1164 1400,1164 C1547.71429,1164 1588,1045.68634 1588,949.37931 C1588,945.216986 1587.84278,941.088722 1587.53354,936.999349 Z" id="Logo" fill="#000000"></path>
        </g>
    </g>
</svg>